<?xml version="1.0" standalone="no"?>
<!DOCTYPE svg PUBLIC "-//W3C//DTD SVG 20010904//EN"
 "http://www.w3.org/TR/2001/REC-SVG-20010904/DTD/svg10.dtd">
<svg version="1.0" xmlns="http://www.w3.org/2000/svg"
 width="561.000000pt" height="230.000000pt" viewBox="0 0 561.000000 230.000000"
 preserveAspectRatio="xMidYMid meet">

<g transform="translate(0.000000,230.000000) scale(0.100000,-0.100000)"
fill="#000000" stroke="none">
<path d="M810 1275 l0 -285 30 0 30 0 0 285 0 285 -30 0 -30 0 0 -285z"/>
<path d="M936 1402 c-12 -11 -6 -331 6 -357 17 -37 57 -55 123 -55 64 0 107
20 124 57 7 14 11 92 11 189 l0 165 -32 -3 -33 -3 -5 -167 c-3 -91 -8 -169
-12 -173 -15 -15 -83 -16 -103 -2 -18 14 -20 29 -23 181 -2 91 -6 166 -10 167
-4 0 -15 2 -24 4 -9 2 -19 0 -22 -3z"/>
<path d="M524 1381 c-28 -17 -50 -62 -36 -76 12 -12 62 -4 62 10 0 32 79 47
114 22 22 -16 24 -64 5 -81 -8 -7 -47 -25 -87 -40 -82 -32 -94 -47 -94 -119 1
-70 30 -99 105 -105 30 -2 71 1 91 8 56 18 66 48 66 194 0 138 -9 170 -51 192
-41 21 -137 18 -175 -5z m164 -252 c-5 -70 -21 -89 -74 -89 -40 0 -64 22 -64
59 0 33 17 50 74 72 68 28 69 27 64 -42z"/>
<path d="M1291 1371 l-31 -29 0 -176 0 -176 30 0 30 0 0 160 c0 147 2 162 20
180 11 11 33 20 49 20 26 0 41 14 41 41 0 5 -24 9 -54 9 -46 0 -59 -4 -85 -29z"/>
<path d="M1489 1371 c-16 -16 -29 -39 -29 -50 0 -30 46 -28 76 4 25 27 70 33
105 15 22 -12 27 -71 7 -87 -7 -6 -38 -18 -68 -28 -77 -25 -98 -41 -112 -86
-27 -90 25 -149 132 -149 63 0 106 23 120 63 13 40 13 246 -1 286 -15 43 -54
61 -134 61 -60 0 -69 -3 -96 -29z m176 -210 c9 -42 -4 -100 -26 -111 -44 -24
-105 -5 -110 35 -6 41 11 62 64 83 67 27 64 27 72 -7z"/>
<path d="M2649 1213 c-43 -7 -107 -69 -119 -114 -21 -77 14 -155 84 -188 36
-18 61 -21 172 -21 115 0 133 3 168 23 54 30 78 67 84 125 6 64 -18 115 -71
150 -38 25 -48 27 -166 28 -69 1 -138 0 -152 -3z m300 -82 c26 -24 31 -37 31
-74 0 -54 -26 -91 -77 -108 -48 -15 -240 -8 -270 11 -61 39 -67 128 -12 174
29 25 35 26 164 26 133 0 133 0 164 -29z"/>
<path d="M3080 1055 l0 -165 30 0 30 0 0 135 0 135 118 0 c103 0 121 -3 135
-18 21 -23 21 -42 3 -68 -12 -16 -30 -20 -112 -24 l-98 -5 89 -77 c82 -71 94
-77 134 -78 l43 0 -56 46 c-31 26 -56 50 -56 55 0 5 12 9 28 9 35 0 68 23 87
60 19 37 19 54 -1 95 -26 55 -61 65 -228 65 l-146 0 0 -165z"/>
<path d="M3678 1203 c-12 -14 -162 -249 -192 -300 -5 -9 2 -13 26 -13 35 0 33
-2 163 204 l38 59 43 -69 c24 -38 44 -72 44 -76 0 -5 -36 -8 -80 -8 l-80 0 16
-25 c15 -23 22 -25 103 -25 85 0 86 0 103 -30 13 -23 24 -30 49 -30 21 0 30 4
26 13 -9 23 -190 302 -201 309 -19 13 -42 9 -58 -9z"/>
<path d="M4036 1210 c-42 -13 -95 -68 -107 -113 -20 -75 15 -153 85 -186 35
-17 61 -21 154 -21 104 0 112 1 127 23 l15 22 -131 5 -131 5 -35 39 c-32 34
-35 43 -30 80 4 29 15 49 37 69 29 26 34 27 143 27 l113 0 17 30 18 30 -123
-1 c-68 0 -136 -5 -152 -9z"/>
<path d="M4350 1067 c0 -106 4 -157 12 -165 17 -17 302 -17 316 1 29 34 20 37
-123 40 l-140 2 -3 138 -3 137 -29 0 -30 0 0 -153z"/>
<path d="M4819 1210 c-107 -32 -153 -160 -89 -250 38 -53 88 -70 216 -70 107
0 112 1 127 24 l16 24 -129 4 c-112 3 -132 6 -157 24 -15 12 -29 31 -31 43 -3
21 -1 21 132 21 124 0 136 2 146 19 5 11 10 22 10 25 0 3 -67 6 -150 6 -82 0
-150 3 -150 8 1 13 34 49 57 61 12 6 69 11 127 11 97 0 106 2 120 22 9 12 16
26 16 30 0 10 -227 9 -261 -2z"/>
<path d="M2110 1125 l0 -55 -55 0 c-42 0 -55 -3 -55 -15 0 -12 13 -15 55 -15
l55 0 0 -50 c0 -27 5 -50 10 -50 6 0 10 23 10 50 l0 50 55 0 c42 0 55 3 55 15
0 12 -13 15 -55 15 l-55 0 0 55 c0 30 -4 55 -10 55 -5 0 -10 -25 -10 -55z"/>
<path d="M900 810 l0 -90 55 0 c42 0 55 3 55 15 0 10 -11 15 -35 15 l-35 0 0
75 c0 68 -2 75 -20 75 -19 0 -20 -7 -20 -90z"/>
<path d="M1070 818 c-45 -88 -47 -113 -8 -89 29 18 78 20 94 3 8 -7 20 -12 28
-10 11 2 3 25 -28 93 l-43 90 -43 -87z m60 -30 c0 -5 -9 -8 -20 -8 -18 0 -19
3 -9 21 9 17 13 19 20 8 5 -8 9 -17 9 -21z"/>
<path d="M1200 885 c0 -8 9 -15 20 -15 18 0 20 -7 20 -75 0 -68 2 -75 20 -75
18 0 20 7 20 75 0 68 2 75 20 75 11 0 20 7 20 15 0 12 -13 15 -60 15 -47 0
-60 -3 -60 -15z"/>
<path d="M1366 815 c-40 -88 -41 -109 -3 -85 28 17 85 19 91 3 3 -7 14 -13 25
-13 18 0 16 8 -21 90 -23 50 -44 90 -47 90 -3 0 -24 -38 -45 -85z m58 -11 c9
-23 8 -24 -14 -24 -11 0 -20 2 -20 4 0 12 13 36 20 36 4 0 11 -7 14 -16z"/>
<path d="M1532 823 c-15 -98 -15 -103 3 -103 14 0 19 13 28 65 2 16 8 12 27
-22 14 -24 28 -43 32 -43 4 0 18 19 30 43 17 33 23 38 25 22 9 -53 15 -65 28
-65 8 0 15 6 15 13 0 30 -24 167 -30 167 -3 0 -19 -25 -35 -55 -17 -30 -32
-55 -35 -55 -3 0 -18 25 -34 55 -16 30 -32 55 -35 55 -4 0 -13 -35 -19 -77z"/>
</g>
</svg>
