<?xml version="1.0" standalone="no"?>
<!DOCTYPE svg PUBLIC "-//W3C//DTD SVG 20010904//EN"
 "http://www.w3.org/TR/2001/REC-SVG-20010904/DTD/svg10.dtd">
<svg version="1.0" xmlns="http://www.w3.org/2000/svg"
 width="900.000000pt" height="232.000000pt" viewBox="0 0 900.000000 232.000000"
 preserveAspectRatio="xMidYMid meet">

<g transform="translate(0.000000,232.000000) scale(0.100000,-0.100000)"
fill="#000000" stroke="none">
<path d="M1065 2229 c-232 -29 -467 -144 -635 -312 -587 -583 -328 -1569 473
-1801 497 -144 1041 90 1277 550 158 307 158 671 0 978 -208 405 -659 642
-1115 585z m35 -29 c-6 -11 -17 -20 -26 -20 -12 0 -12 4 -4 20 6 11 17 20 26
20 12 0 12 -4 4 -20z m49 -110 c1 -54 -11 -70 -56 -70 -40 0 -55 24 -57 93 -1
68 21 75 30 9 8 -60 17 -77 38 -69 14 6 16 16 10 58 -5 38 -3 53 7 60 17 10
27 -17 28 -81z m104 78 c12 -9 17 -31 19 -73 l3 -60 -42 -3 -43 -3 0 75 c0 73
1 76 23 76 13 0 31 -6 40 -12z m103 -63 c-6 -61 -5 -65 14 -65 21 0 27 -15 10
-25 -6 -4 -24 -3 -41 0 -28 6 -30 10 -26 38 3 18 9 51 12 75 5 28 12 42 22 42
13 0 15 -10 9 -65z m109 36 c3 -6 -2 -39 -11 -75 -13 -53 -20 -66 -36 -66 -14
0 -18 5 -14 18 3 9 10 37 16 62 6 25 13 51 15 58 5 14 21 16 30 3z m-475 -15
c17 -22 8 -60 -17 -71 -17 -7 -21 -15 -16 -37 4 -21 2 -28 -10 -28 -11 0 -21
18 -32 58 -9 31 -18 62 -20 69 -8 24 75 32 95 9z m-135 -25 c3 -6 -4 -15 -15
-21 -28 -15 -26 -34 4 -26 30 7 45 -20 15 -29 -29 -9 -17 -31 15 -27 34 4 35
-21 1 -36 -42 -19 -49 -15 -76 53 l-27 65 27 15 c31 17 48 19 56 6z m739 3 c9
-3 16 -15 16 -25 0 -20 -15 -26 -25 -9 -11 18 -44 10 -60 -14 -20 -30 -6 -66
25 -66 11 0 20 -7 20 -15 0 -22 -46 -19 -70 5 -42 42 -8 130 50 130 16 0 35
-3 44 -6z m-853 -75 c12 -12 19 -29 16 -40 -4 -14 3 -24 26 -35 26 -14 28 -18
14 -26 -11 -5 -24 -5 -36 2 -28 14 -36 12 -21 -5 15 -18 0 -42 -18 -31 -10 6
-72 110 -72 121 0 5 51 34 63 35 4 0 16 -9 28 -21z m976 -39 c-10 -88 -17
-110 -33 -103 -8 3 -14 13 -14 24 0 23 -37 44 -53 30 -12 -9 -47 2 -37 12 39
37 118 97 129 97 11 0 13 -12 8 -60z m-257 -59 c345 -115 570 -422 570 -776 0
-354 -224 -658 -570 -777 -91 -31 -102 -32 -250 -32 -181 -1 -236 11 -375 80
-208 103 -356 277 -427 504 -20 65 -23 96 -23 225 0 129 3 160 23 225 77 245
241 427 472 527 118 50 195 63 350 59 120 -3 146 -7 230 -35z m-806 -1463 c23
-32 20 -65 -9 -93 -31 -32 -75 -32 -109 -2 l-25 22 46 57 c51 61 64 63 97 16z
m1181 -25 c66 -39 77 -57 34 -59 -37 -1 -57 -13 -52 -33 2 -9 -2 -23 -10 -29
-12 -11 -19 0 -39 65 -35 109 -30 113 67 56z m-1071 -46 c26 -19 12 -41 -15
-26 -27 14 -36 4 -17 -18 22 -25 13 -46 -14 -32 -31 17 -45 -5 -17 -25 17 -12
20 -19 12 -27 -8 -8 -19 -6 -42 7 -17 10 -31 22 -31 25 0 4 16 35 36 68 38 64
40 64 88 28z m964 -39 c35 -53 39 -64 26 -71 -9 -5 -17 -7 -19 -5 -22 25 -74
121 -70 128 12 19 23 10 63 -52z m-82 -10 c4 -13 15 -29 25 -36 29 -21 24 -59
-11 -77 -16 -8 -33 -15 -37 -15 -5 0 -23 29 -41 65 -29 59 -30 65 -14 74 32
19 70 13 78 -11z m-98 -74 c31 -61 34 -84 11 -84 -5 0 -15 11 -21 25 -16 36
-28 31 -28 -12 l-1 -38 -31 35 -30 35 6 -36 c5 -28 3 -38 -8 -42 -21 -8 -23
-2 -31 81 -9 85 4 95 45 35 l25 -37 3 40 c6 84 18 84 60 -2z m-604 50 c9 -3
16 -15 16 -25 0 -22 -4 -23 -31 -9 -32 17 -61 -5 -57 -43 2 -27 8 -33 31 -35
35 -4 31 -26 -6 -30 -34 -4 -67 29 -67 68 0 56 60 95 114 74z m136 -34 c25
-13 41 -65 30 -94 -11 -29 -47 -56 -75 -56 -35 0 -65 36 -65 77 0 64 57 101
110 73z m280 -20 c31 -31 27 -93 -6 -119 -36 -29 -60 -26 -96 9 -25 26 -29 36
-24 63 12 62 84 89 126 47z m-180 -50 c0 -54 2 -60 21 -60 36 0 15 -25 -24
-28 l-37 -3 0 75 c0 69 2 76 20 76 18 0 20 -7 20 -60z"/>
<path d="M1220 2136 c0 -9 5 -16 10 -16 6 0 10 4 10 9 0 6 -4 13 -10 16 -5 3
-10 -1 -10 -9z"/>
<path d="M1220 2070 c0 -13 5 -20 13 -17 6 2 12 10 12 17 0 7 -6 15 -12 18 -8
2 -13 -5 -13 -18z"/>
<path d="M940 2095 c0 -8 5 -15 10 -15 6 0 10 7 10 15 0 8 -4 15 -10 15 -5 0
-10 -7 -10 -15z"/>
<path d="M696 1995 c4 -8 10 -15 15 -15 5 0 9 7 9 15 0 8 -7 15 -15 15 -9 0
-12 -6 -9 -15z"/>
<path d="M1665 1981 c-3 -5 -1 -12 5 -16 5 -3 10 1 10 9 0 18 -6 21 -15 7z"/>
<path d="M958 1775 c-55 -20 -195 -116 -257 -175 -9 -9 -40 -35 -68 -59 -52
-42 -69 -70 -35 -56 9 4 26 9 37 11 87 17 125 29 125 38 0 6 4 6 11 -1 8 -8
18 -8 30 -2 11 5 28 14 39 19 11 6 25 10 32 10 7 0 26 7 41 15 25 13 29 13 34
-1 4 -11 15 -13 47 -9 32 5 45 3 55 -9 8 -9 20 -16 27 -16 8 0 14 -5 14 -11 0
-5 4 -8 8 -5 4 3 8 -18 7 -46 -1 -33 3 -52 12 -55 7 -3 13 -9 13 -15 0 -5 -4
-6 -10 -3 -6 3 -10 -4 -10 -17 0 -18 2 -20 10 -8 8 13 10 12 10 -4 0 -15 -5
-17 -30 -12 -23 4 -30 2 -30 -9 0 -11 7 -14 25 -11 34 6 45 14 45 34 1 13 3
12 13 -5 7 -12 16 -22 20 -22 24 1 16 -13 -16 -26 -64 -27 -176 -17 -198 18
-4 5 -17 6 -29 2 -13 -4 -18 -10 -12 -14 7 -4 12 -47 14 -101 l3 -95 73 -3
c39 -2 72 1 72 5 -1 11 -26 43 -34 43 -17 0 -44 38 -48 68 -6 42 7 50 36 23
32 -30 66 -26 113 14 25 21 52 35 68 35 15 0 24 -4 20 -10 -3 -5 2 -10 12 -10
10 0 35 -11 55 -25 45 -30 46 -30 74 -4 29 27 42 19 36 -23 -5 -34 -24 -59
-54 -71 -22 -8 -23 -33 -2 -41 9 -3 37 -6 64 -6 58 0 60 3 60 116 0 60 4 84
13 85 6 0 2 5 -11 12 -16 7 -26 7 -30 0 -22 -33 -118 -44 -194 -21 l-40 12 7
44 c7 49 29 81 39 59 3 -6 4 8 1 33 -5 46 5 77 22 67 6 -4 28 3 49 14 26 13
49 18 70 14 21 -3 35 -1 43 9 10 12 16 12 39 0 15 -8 33 -14 40 -14 7 0 21 -4
32 -10 11 -5 29 -15 40 -20 12 -6 25 -8 30 -5 5 3 18 2 27 -3 10 -6 34 -12 53
-15 43 -7 70 -13 93 -22 31 -13 18 12 -25 46 -23 19 -67 56 -97 83 -73 63
-196 145 -245 162 -52 19 -140 18 -156 -1 -8 -10 -10 -31 -5 -65 4 -29 3 -50
-2 -50 -5 0 -8 -13 -5 -29 3 -25 -1 -32 -28 -46 -31 -16 -33 -16 -52 4 -10 12
-23 19 -29 16 -5 -4 -9 2 -9 11 0 14 3 15 12 6 19 -19 33 -14 15 6 -10 10 -17
23 -17 29 0 6 -7 14 -16 17 -8 3 -13 10 -10 15 4 5 0 12 -6 14 -7 3 -1 6 14 6
35 1 48 21 14 21 -18 0 -26 5 -26 18 0 10 -5 23 -12 30 -16 16 -114 14 -160
-3z m149 -85 c1 -11 -2 -20 -8 -20 -10 0 -12 23 -2 33 9 9 9 10 10 -13z m106
-309 l-8 -33 -20 22 c-14 16 -15 19 -3 15 17 -7 32 20 22 38 -5 9 -4 9 5 1 8
-8 10 -21 4 -43z"/>
<path d="M877 1463 c-10 -9 -8 -53 2 -53 5 0 14 7 21 15 20 24 -2 59 -23 38z"/>
<path d="M1511 1461 c-10 -7 -11 -13 -2 -30 17 -30 31 -26 31 9 0 31 -6 36
-29 21z"/>
<path d="M663 1416 c5 -16 47 -20 47 -4 0 7 -11 14 -25 14 -16 1 -24 -3 -22
-10z"/>
<path d="M1694 1421 c-2 -2 -1 -8 2 -12 8 -14 41 -10 47 5 4 10 -2 13 -20 12
-13 0 -26 -3 -29 -5z"/>
<path d="M1051 1394 c0 -11 3 -14 6 -6 3 7 2 16 -1 19 -3 4 -6 -2 -5 -13z"/>
<path d="M1076 1395 c-3 -9 0 -15 9 -15 9 0 12 6 9 15 -4 8 -7 15 -9 15 -2 0
-5 -7 -9 -15z"/>
<path d="M902 1380 c0 -14 2 -19 5 -12 2 6 2 18 0 25 -3 6 -5 1 -5 -13z"/>
<path d="M818 1282 c3 -47 9 -61 30 -80 l27 -24 -39 21 c-21 12 -41 20 -43 17
-3 -3 0 -47 6 -98 16 -134 52 -241 111 -332 51 -76 51 -76 78 -62 15 8 35 22
44 33 16 17 15 21 -14 63 -71 105 -108 231 -108 374 0 57 -5 88 -15 102 -8 10
-15 15 -15 11 0 -5 -15 0 -32 11 l-33 21 3 -57z"/>
<path d="M1556 1315 c-10 -8 -23 -12 -27 -9 -16 10 -26 -34 -32 -141 -8 -149
-44 -260 -115 -354 l-26 -34 39 -34 c21 -18 41 -33 45 -33 4 0 28 31 54 70 62
91 105 222 115 348 3 50 5 92 3 92 -2 0 -17 -9 -34 -21 -16 -12 -32 -19 -34
-16 -3 3 6 13 20 22 23 15 26 24 26 71 0 57 -4 62 -34 39z"/>
<path d="M630 1305 c7 -8 21 -15 31 -15 11 0 19 7 19 15 0 10 -10 15 -31 15
-27 0 -30 -2 -19 -15z"/>
<path d="M1730 1305 c0 -8 8 -15 19 -15 10 0 24 7 31 15 11 13 8 15 -19 15
-21 0 -31 -5 -31 -15z"/>
<path d="M1190 1290 c-12 -8 -12 -12 -2 -18 8 -5 10 -16 6 -27 -5 -12 -4 -16
4 -11 6 4 10 20 9 36 -1 17 -2 30 -2 30 0 0 -7 -5 -15 -10z"/>
<path d="M1106 1216 c7 -19 38 -22 32 -3 -3 6 -12 13 -21 15 -12 2 -15 -1 -11
-12z"/>
<path d="M1275 1219 c-11 -17 -2 -18 19 -3 17 12 17 14 4 14 -9 0 -20 -5 -23
-11z"/>
<path d="M1081 1194 c0 -11 3 -14 6 -6 3 7 2 16 -1 19 -3 4 -6 -2 -5 -13z"/>
<path d="M1316 1163 c-6 -14 -5 -15 5 -6 7 7 10 15 7 18 -3 3 -9 -2 -12 -12z"/>
<path d="M1248 1152 c-10 -2 -18 -8 -18 -13 0 -13 27 -11 35 2 9 13 4 16 -17
11z"/>
<path d="M1178 1084 c-30 -16 -38 -44 -13 -44 18 0 20 -31 3 -49 -11 -11 -8
-12 15 -7 15 3 27 3 27 -1 0 -10 49 -33 68 -33 10 0 12 4 5 13 -6 6 -13 32
-17 56 -12 81 -32 96 -88 65z"/>
<path d="M1010 892 c0 -12 52 -83 73 -101 15 -12 17 -10 17 17 0 30 1 30 32
21 18 -5 50 -9 70 -9 25 0 37 -4 35 -12 -1 -7 6 -12 16 -10 11 2 17 -4 17 -17
0 -34 19 -34 51 1 30 32 79 102 79 113 0 3 -88 5 -195 5 -107 0 -195 -4 -195
-8z m236 -17 c27 -27 10 -33 -74 -26 -10 1 -10 5 0 21 15 24 53 26 74 5z m58
-71 c5 -14 4 -15 -9 -4 -17 14 -19 20 -6 20 5 0 12 -7 15 -16z"/>
<path d="M1156 739 c7 -11 91 -12 98 -1 3 5 -19 9 -49 10 -30 0 -52 -4 -49 -9z"/>
<path d="M1078 698 c-13 -20 -24 -23 -79 -23 -35 0 -77 4 -94 8 l-30 8 25 -15
c32 -20 125 -20 179 -1 33 11 46 12 61 3 30 -19 43 -62 36 -116 -13 -104 -15
-97 29 -97 34 0 40 3 43 23 2 14 10 22 23 22 15 0 19 6 17 22 -2 15 3 24 18
27 20 6 20 7 -9 69 l-29 62 -32 -19 -32 -20 -53 34 c-29 19 -54 35 -56 35 -1
0 -9 -10 -17 -22z m162 -152 c0 -65 -6 -56 -14 19 -3 40 -2 55 4 45 5 -8 10
-37 10 -64z m17 42 c-3 -8 -6 -5 -6 6 -1 11 2 17 5 13 3 -3 4 -12 1 -19z"/>
<path d="M1293 713 c-24 -9 -13 -21 34 -37 59 -20 150 -20 183 0 l25 15 -30
-8 c-16 -4 -59 -8 -94 -8 -55 0 -66 3 -79 23 -15 23 -18 24 -39 15z"/>
<path d="M585 428 c-23 -27 -24 -33 -11 -40 23 -13 56 8 56 37 0 37 -16 38
-45 3z"/>
<path d="M1790 422 c0 -12 19 -26 26 -19 2 2 -2 10 -11 17 -9 8 -15 8 -15 2z"/>
<path d="M1600 330 c0 -5 5 -10 10 -10 6 0 10 5 10 10 0 6 -4 10 -10 10 -5 0
-10 -4 -10 -10z"/>
<path d="M1626 275 c4 -9 11 -14 16 -13 15 5 11 23 -6 26 -11 2 -14 -2 -10
-13z"/>
<path d="M1021 254 c-23 -17 -27 -44 -9 -62 30 -30 75 0 64 42 -8 31 -28 38
-55 20z"/>
<path d="M1288 249 c-10 -5 -18 -20 -18 -32 0 -49 53 -64 72 -22 9 21 8 28 -7
45 -21 23 -23 23 -47 9z"/>
<path d="M2760 2224 c-109 -29 -189 -98 -239 -203 l-26 -56 0 -810 0 -810 33
-67 c40 -81 110 -148 190 -180 l57 -23 2915 0 2915 0 57 23 c80 32 150 99 190
180 l33 67 0 810 0 810 -33 67 c-40 81 -110 148 -190 180 l-57 23 -2895 2
c-2525 2 -2902 0 -2950 -13z m243 -521 c8 -16 32 -76 53 -135 21 -60 41 -108
44 -108 3 0 27 61 54 135 l48 135 34 0 c19 0 34 -4 34 -8 0 -4 14 -98 30 -207
17 -109 30 -207 30 -217 0 -15 -8 -18 -44 -18 l-44 0 -12 103 c-20 155 -21
155 -71 16 -60 -169 -68 -168 -128 6 -51 147 -45 150 -71 -37 l-12 -88 -44 0
c-34 0 -44 4 -44 16 0 15 54 348 66 407 5 22 11 27 35 27 21 0 32 -7 42 -27z
m441 11 c19 -18 21 -55 4 -72 -7 -7 -24 -12 -38 -12 -14 0 -31 5 -38 12 -28
28 -2 88 38 88 10 0 26 -7 34 -16z m1019 -6 c13 -6 17 -21 17 -57 l0 -49 -37
19 c-47 24 -80 24 -119 0 -84 -51 -84 -201 0 -252 40 -24 72 -24 119 1 l37 20
0 -50 c0 -60 -18 -73 -101 -73 -103 0 -185 69 -209 177 -27 121 49 248 164
277 34 8 101 2 129 -13z m-443 -33 c0 -35 0 -35 -45 -35 l-45 0 0 -180 0 -180
-45 0 -45 0 0 180 0 180 -45 0 c-45 0 -45 0 -45 35 l0 35 135 0 135 0 0 -35z
m110 -180 l0 -215 -45 0 -45 0 0 215 0 215 45 0 45 0 0 -215z m-409 62 c32
-24 39 -56 39 -166 l0 -111 -40 0 -40 0 -1 83 c-1 106 -8 131 -39 135 -39 6
-50 -21 -50 -125 l0 -93 -45 0 -45 0 0 141 0 140 55 -2 c30 -1 58 1 62 4 11
12 87 7 104 -6z m-271 -137 l0 -140 -40 0 -40 0 0 140 0 140 40 0 40 0 0 -140z
m1070 -419 l0 -138 -54 -7 c-66 -7 -82 -2 -101 35 -38 73 14 157 84 134 20 -6
21 -3 21 54 0 58 1 61 25 61 l25 0 0 -139z m1150 -1 l0 -140 -25 0 -25 0 0
140 0 140 25 0 25 0 0 -140z m-2705 38 l31 -77 28 79 c22 61 33 80 47 80 11 0
21 -9 23 -22 6 -25 36 -222 36 -232 0 -3 -13 -6 -30 -6 -28 0 -30 3 -31 38 -1
20 -4 51 -8 67 -6 28 -8 26 -31 -39 -14 -38 -30 -71 -36 -73 -7 -2 -22 24 -35
61 -13 35 -26 63 -30 60 -4 -2 -10 -29 -14 -59 -6 -53 -8 -55 -36 -55 -25 0
-29 3 -24 23 2 12 12 65 20 117 19 118 21 122 42 118 12 -2 29 -30 48 -80z
m230 52 c0 -18 -6 -26 -21 -28 -26 -4 -40 24 -23 45 18 21 44 11 44 -17z m260
0 c0 -18 -6 -26 -23 -28 -27 -4 -40 22 -22 44 19 22 45 13 45 -16z m600 0 c0
-18 -6 -26 -23 -28 -24 -4 -38 18 -28 44 3 9 15 14 28 12 17 -2 23 -10 23 -28z
m2069 -21 c-15 -15 -33 -25 -40 -22 -19 7 -18 16 7 46 17 23 23 25 39 15 19
-12 19 -13 -6 -39z m-1174 16 c0 -20 -5 -25 -25 -25 l-25 0 0 -100 0 -100 -25
0 -25 0 0 100 0 100 -25 0 c-20 0 -25 5 -25 25 0 24 2 25 75 25 73 0 75 -1 75
-25z m-1280 -30 c0 -14 7 -28 15 -31 8 -4 15 -15 15 -25 0 -10 -7 -19 -15 -19
-12 0 -15 -13 -15 -60 0 -56 -1 -60 -24 -60 -22 0 -24 4 -28 73 -3 39 -3 89 0
110 4 31 8 37 28 37 19 0 24 -5 24 -25z m-308 -42 c14 -13 18 -31 18 -85 0
-66 -1 -68 -25 -68 -24 0 -25 3 -25 54 0 32 -5 58 -13 65 -22 18 -37 -8 -37
-66 0 -50 -1 -53 -25 -53 -25 0 -25 1 -25 79 l0 80 38 4 c20 2 46 4 56 5 11 1
28 -5 38 -15z m216 9 c20 -13 3 -44 -19 -37 -30 10 -22 -8 12 -27 25 -15 30
-23 27 -50 -4 -40 -41 -64 -82 -54 -30 7 -44 32 -28 48 8 8 16 7 27 -2 11 -9
19 -10 27 -2 7 7 2 15 -20 26 -39 20 -49 49 -28 81 17 25 57 33 84 17z m256
-13 c17 -14 26 -30 26 -50 0 -28 -1 -29 -50 -29 -38 0 -50 -4 -50 -15 0 -20
28 -31 43 -16 13 13 57 15 57 1 0 -21 -45 -50 -77 -50 -49 0 -83 37 -83 90 0
77 74 116 134 69z m156 -4 c0 -20 -5 -25 -24 -25 -28 0 -36 -16 -36 -76 0 -40
-2 -44 -25 -44 -25 0 -25 1 -25 79 l0 80 38 4 c20 2 45 4 55 5 12 2 17 -5 17
-23z m231 -4 c20 -20 29 -39 29 -61 0 -39 -47 -90 -84 -90 -87 0 -127 91 -67
151 40 39 82 39 122 0z m454 4 c14 -13 25 -36 25 -50 0 -23 -3 -25 -50 -25
-38 0 -50 -4 -50 -15 0 -20 28 -31 43 -16 13 13 57 15 57 1 0 -5 -10 -18 -22
-30 -31 -28 -83 -26 -113 5 -54 53 -18 155 55 155 19 0 40 -9 55 -25z m400 0
c14 -13 25 -36 25 -50 0 -24 -3 -25 -55 -25 -53 0 -55 -1 -45 -21 8 -14 17
-18 28 -13 31 13 72 16 72 6 0 -19 -52 -52 -82 -52 -17 0 -39 10 -53 25 -54
53 -18 155 55 155 19 0 40 -9 55 -25z m149 19 c9 -3 16 -17 16 -30 0 -20 -4
-23 -28 -18 -36 7 -57 -16 -48 -52 6 -24 11 -26 41 -21 32 5 35 3 35 -18 0
-42 -67 -49 -105 -10 -67 66 3 182 89 149z m168 -11 c14 -13 18 -31 18 -85 0
-66 -1 -68 -25 -68 -24 0 -25 3 -25 54 0 32 -5 58 -13 65 -22 18 -37 -8 -37
-66 0 -50 -1 -53 -25 -53 -25 0 -25 1 -25 79 l0 80 38 4 c20 2 46 4 56 5 11 1
28 -5 38 -15z m183 -8 c36 -35 35 -105 -1 -134 -62 -49 -144 -10 -144 69 0 54
34 90 85 90 25 0 44 -8 60 -25z m270 -10 c29 -30 34 -32 38 -16 9 36 49 52
111 45 l56 -7 0 -76 c0 -131 -21 -171 -88 -171 -33 0 -82 34 -82 56 0 18 39
18 63 -1 23 -17 47 -9 47 15 0 16 -6 18 -34 13 -26 -4 -39 0 -55 16 -11 11
-21 28 -21 37 0 10 -12 3 -34 -20 -36 -38 -69 -46 -109 -24 -33 17 -46 39 -46
78 0 54 36 89 93 90 20 0 38 -10 61 -35z m443 25 c21 0 22 -4 22 -79 l0 -78
-54 -7 c-66 -7 -82 -2 -101 35 -19 36 -19 62 0 99 18 35 30 41 75 35 19 -3 45
-5 58 -5z m143 -1 c26 -13 8 -39 -21 -32 -30 8 -24 -10 10 -29 22 -12 30 -25
30 -44 0 -55 -60 -83 -105 -50 -16 12 -17 16 -6 30 10 11 18 13 31 6 24 -13
30 -13 30 3 0 6 -14 20 -30 29 -70 40 -10 125 61 87z m-3231 -79 c0 -79 0 -80
-25 -80 -25 0 -25 1 -25 80 0 79 0 80 25 80 25 0 25 -1 25 -80z m260 0 c0 -79
0 -80 -25 -80 -25 0 -25 1 -25 80 0 79 0 80 25 80 25 0 25 -1 25 -80z m590 0
c0 -79 0 -80 -25 -80 -25 0 -25 1 -25 80 0 79 0 80 25 80 25 0 25 -1 25 -80z
m2070 0 c0 -79 0 -80 -25 -80 -25 0 -25 1 -25 80 0 79 0 80 25 80 25 0 25 -1
25 -80z m-2080 -214 c0 -15 -7 -26 -20 -29 -15 -4 -20 -14 -20 -36 0 -24 4
-31 20 -31 15 0 20 -7 20 -25 0 -18 -5 -25 -20 -25 -18 0 -20 -7 -20 -60 0
-57 -1 -60 -25 -60 -24 0 -25 3 -25 55 0 30 -6 64 -12 75 -10 15 -10 22 0 32
6 6 12 29 12 50 0 45 28 78 65 78 20 0 25 -5 25 -24z m-1010 -125 l0 -138 -52
-6 c-69 -6 -96 5 -114 49 -28 67 12 131 77 122 l29 -5 0 59 c0 58 0 58 30 58
l30 0 0 -139z m340 -1 l0 -140 -25 0 -25 0 0 140 0 140 25 0 25 0 0 -140z
m2440 0 l0 -140 -25 0 -25 0 0 140 0 140 25 0 25 0 0 -140z m-804 105 c7 -18
-13 -45 -33 -45 -17 0 -27 24 -19 45 7 20 45 19 52 0z m143 2 c14 -18 -31 -62
-54 -53 -15 5 -14 9 5 36 24 33 32 36 49 17z m1275 7 c10 -4 16 -18 16 -36 0
-25 -3 -29 -17 -23 -44 19 -62 17 -87 -8 -17 -17 -26 -37 -26 -57 0 -66 41
-98 98 -74 32 13 32 13 32 -17 0 -36 -36 -54 -89 -44 -107 20 -135 180 -42
242 33 22 83 29 115 17z m894 -20 c3 -23 -18 -37 -43 -28 -16 6 -20 35 -8 48
14 14 48 1 51 -20z m548 11 c7 -18 -13 -45 -33 -45 -17 0 -27 24 -19 45 7 20
45 19 52 0z m-4126 -120 l0 -125 -25 0 -25 0 0 125 0 125 25 0 25 0 0 -125z
m-570 35 c19 -10 43 -67 34 -81 -3 -5 -27 -9 -55 -9 -27 0 -49 -5 -49 -10 0
-16 31 -24 49 -14 17 11 51 7 51 -4 -1 -28 -53 -56 -88 -47 -38 9 -61 33 -68
70 -6 34 15 89 38 98 22 9 68 7 88 -3z m390 -77 l0 -85 -27 3 c-16 1 -38 -1
-50 -5 -26 -8 -77 15 -87 39 -12 33 -6 83 14 108 19 24 28 26 85 26 l65 -1 0
-85z m350 67 c5 -10 10 -48 10 -84 0 -64 -1 -66 -25 -66 -24 0 -25 3 -25 60 0
46 -4 62 -16 67 -23 9 -34 -15 -34 -74 0 -50 -2 -53 -25 -53 -25 0 -25 1 -25
84 l0 84 65 1 c54 0 66 -3 75 -19z m278 -2 c45 -49 36 -115 -19 -143 -89 -47
-176 69 -104 140 32 33 93 34 123 3z m154 -4 c-3 -14 -10 -23 -17 -21 -23 10
-36 -11 -42 -66 -5 -52 -8 -57 -29 -57 -23 0 -24 3 -24 78 0 43 2 81 5 84 3 3
30 6 59 6 51 0 53 -1 48 -24z m145 15 c7 -7 13 -6 18 1 9 14 58 13 73 -2 7 -7
12 -42 12 -85 0 -71 -1 -73 -25 -73 -24 0 -25 3 -25 59 0 59 -14 86 -31 60 -5
-8 -9 -38 -9 -66 0 -50 -2 -53 -25 -53 -23 0 -25 3 -25 53 0 28 -4 58 -9 66
-17 26 -31 -1 -31 -60 0 -59 0 -59 -30 -59 l-30 0 0 78 c0 43 2 81 5 84 10 9
119 7 132 -3z m293 -75 l0 -84 -32 0 c-18 0 -43 -3 -55 -6 -34 -9 -83 44 -83
91 0 58 34 84 109 84 l61 -1 0 -84z m148 53 c3 -26 2 -27 -17 -18 -40 22 -73
-17 -51 -60 9 -17 18 -20 41 -15 25 5 29 3 29 -18 0 -46 -81 -42 -114 6 -42
60 1 142 72 136 32 -3 37 -7 40 -31z m72 -52 c0 -84 0 -85 -25 -85 -25 0 -25
1 -25 85 0 84 0 85 25 85 25 0 25 -1 25 -85z m155 79 c20 -8 45 -56 45 -88 0
-14 -11 -37 -24 -53 -34 -39 -98 -39 -132 0 -66 77 13 178 111 141z m200 -17
c9 -14 15 -44 15 -84 l0 -63 -30 0 -30 0 0 66 c0 57 -2 65 -17 62 -15 -3 -19
-16 -21 -66 -3 -61 -3 -62 -32 -62 l-30 0 0 78 c0 43 2 81 5 84 3 3 32 6 65 6
50 1 62 -3 75 -21z m190 -19 l17 -43 21 43 c17 34 26 42 49 42 15 0 28 -2 28
-4 0 -2 -27 -60 -60 -130 -53 -112 -62 -126 -85 -126 -31 0 -31 12 -1 70 l24
45 -34 67 c-19 37 -34 70 -34 73 0 3 13 5 29 5 25 0 31 -6 46 -42z m455 -44
l0 -84 -32 0 c-18 0 -43 -3 -55 -6 -16 -5 -30 2 -53 24 -36 37 -40 86 -10 125
19 24 28 26 85 26 l65 -1 0 -84z m124 80 c24 -9 2 -44 -24 -37 -32 8 -23 -11
11 -24 27 -11 30 -15 27 -50 -4 -49 -42 -72 -89 -52 -41 17 -35 45 9 41 39 -4
42 12 5 30 -31 15 -43 59 -22 84 12 14 55 19 83 8z m473 -16 c29 -33 35 -57
22 -95 -30 -93 -169 -70 -169 29 0 28 7 46 25 63 32 33 93 34 122 3z m271 9
c7 -6 12 -36 12 -83 0 -72 -1 -74 -25 -74 -23 0 -24 4 -27 63 -2 47 -7 62 -18
62 -11 0 -16 -15 -18 -62 -3 -59 -4 -63 -27 -63 -23 0 -25 4 -25 43 0 55 -9
87 -25 87 -16 0 -25 -32 -25 -87 0 -39 -2 -43 -25 -43 -25 0 -25 1 -25 84 l0
84 108 0 c59 -1 113 -5 120 -11z m92 -47 c0 -46 4 -62 16 -67 23 -9 34 15 34
75 0 49 2 52 25 52 24 0 25 -2 25 -68 0 -83 -18 -107 -82 -107 -55 0 -68 21
-68 107 0 66 1 68 25 68 24 0 25 -3 25 -60z m265 37 c9 -14 15 -44 15 -84 0
-60 -1 -63 -24 -63 -22 0 -24 5 -28 60 -5 65 -10 75 -33 67 -11 -5 -15 -22
-15 -67 l0 -60 -30 0 -30 0 0 78 c0 43 2 81 5 84 3 3 32 6 65 6 50 1 62 -3 75
-21z m93 -64 l3 -83 -31 0 -30 0 0 78 c0 85 4 94 35 90 18 -3 20 -11 23 -85z
m140 54 c3 -26 2 -28 -18 -17 -30 16 -52 -4 -48 -44 3 -28 6 -31 36 -31 26 0
32 -4 32 -22 0 -43 -75 -40 -110 4 -47 60 -4 146 70 140 30 -2 35 -6 38 -30z
m182 -53 l0 -84 -32 0 c-18 0 -43 -3 -55 -6 -34 -9 -83 44 -83 91 0 58 34 84
109 84 l61 -1 0 -84z m148 53 c3 -26 2 -27 -17 -18 -40 22 -73 -17 -51 -60 9
-17 18 -20 41 -15 25 5 29 3 29 -18 0 -46 -81 -42 -114 6 -42 60 1 142 72 136
32 -3 37 -7 40 -31z m72 -52 c0 -84 0 -85 -25 -85 -25 0 -25 1 -25 85 0 84 0
85 25 85 25 0 25 -1 25 -85z m155 79 c20 -8 45 -56 45 -88 0 -14 -11 -37 -24
-53 -34 -39 -98 -39 -132 0 -66 77 13 178 111 141z m200 -17 c9 -14 15 -44 15
-84 l0 -63 -30 0 -30 0 0 66 c0 57 -2 65 -17 62 -15 -3 -19 -16 -21 -66 -3
-61 -3 -62 -32 -62 l-30 0 0 78 c0 43 2 81 5 84 3 3 32 6 65 6 50 1 62 -3 75
-21z m158 11 c18 -14 39 -73 29 -82 -3 -3 -27 -6 -54 -6 -26 0 -48 -5 -48 -10
0 -15 27 -23 48 -14 15 6 43 6 50 -1 10 -9 -15 -36 -42 -45 -66 -22 -124 28
-113 98 4 20 16 45 28 55 25 20 78 22 102 5z m141 6 c24 -9 2 -44 -24 -37 -11
3 -20 1 -20 -5 0 -5 11 -13 25 -16 37 -9 52 -48 32 -80 -21 -32 -51 -41 -88
-26 -32 14 -31 12 -23 34 4 11 14 13 35 9 37 -7 38 11 2 29 -31 15 -43 59 -22
84 12 14 55 19 83 8z"/>
<path d="M4410 961 c-15 -29 4 -63 33 -59 18 2 22 10 22 38 0 28 -4 36 -22 38
-14 2 -26 -4 -33 -17z"/>
<path d="M3767 984 c-14 -14 -6 -24 19 -24 16 0 24 5 22 13 -5 14 -31 21 -41
11z"/>
<path d="M4130 960 c-14 -26 3 -60 30 -60 25 0 40 29 29 58 -10 28 -45 29 -59
2z"/>
<path d="M4607 984 c-14 -14 -6 -24 19 -24 16 0 24 5 22 13 -5 14 -31 21 -41
11z"/>
<path d="M5007 984 c-14 -14 -6 -24 19 -24 16 0 24 5 22 13 -5 14 -31 21 -41
11z"/>
<path d="M5492 968 c-25 -25 -6 -68 29 -68 21 0 33 31 24 60 -7 22 -35 26 -53
8z"/>
<path d="M5750 961 c-15 -29 4 -63 33 -59 18 2 22 10 22 38 0 28 -4 36 -22 38
-14 2 -26 -4 -33 -17z"/>
<path d="M5934 966 c-11 -28 1 -61 22 -64 31 -4 50 23 36 53 -13 27 -49 34
-58 11z"/>
<path d="M6200 960 c-14 -26 3 -60 30 -60 27 0 44 34 30 60 -6 11 -19 20 -30
20 -11 0 -24 -9 -30 -20z"/>
<path d="M2927 578 c-31 -17 -15 -78 20 -78 17 0 35 37 28 59 -7 24 -26 32
-48 19z"/>
<path d="M3105 580 c-4 -6 5 -10 19 -10 14 0 26 5 26 10 0 6 -9 10 -19 10 -11
0 -23 -4 -26 -10z"/>
<path d="M3456 574 c-20 -19 -20 -35 -2 -60 19 -25 50 -9 54 29 4 34 -29 54
-52 31z"/>
<path d="M4106 574 c-20 -19 -20 -35 -2 -60 19 -25 50 -9 54 29 4 34 -29 54
-52 31z"/>
<path d="M4672 563 c-14 -26 3 -63 28 -63 25 0 42 37 28 63 -5 9 -17 17 -28
17 -11 0 -23 -8 -28 -17z"/>
<path d="M5080 561 c-8 -15 -8 -27 0 -41 20 -38 63 -18 58 26 -4 37 -41 46
-58 15z"/>
<path d="M5890 560 c-12 -23 2 -60 23 -60 31 1 50 34 35 63 -12 23 -45 22 -58
-3z"/>
<path d="M6516 574 c-20 -19 -20 -35 -2 -60 19 -25 50 -9 54 29 4 34 -29 54
-52 31z"/>
<path d="M7532 563 c-14 -26 3 -63 28 -63 25 0 42 37 28 63 -5 9 -17 17 -28
17 -11 0 -23 -8 -28 -17z"/>
<path d="M7940 561 c-8 -15 -8 -27 0 -41 20 -38 63 -18 58 26 -4 37 -41 46
-58 15z"/>
<path d="M8305 580 c-4 -6 5 -10 19 -10 14 0 26 5 26 10 0 6 -9 10 -19 10 -11
0 -23 -4 -26 -10z"/>
</g>
</svg>
